<?xml version="1.0" encoding="utf-8"?>
<svg viewBox="0 0 500 500" xmlns="http://www.w3.org/2000/svg">
  <g transform="matrix(1, 0, 0, 1, 30.576967, 9.252105)">
    <g>
      <path d="M 392.533 0 L 85.333 0 C 38.228 0.056 0.056 38.228 0 85.333 L 0 392.533 C 0.056 439.638 38.228 477.81 85.333 477.866 L 392.533 477.866 C 439.638 477.81 477.81 439.638 477.866 392.533 L 477.866 85.333 C 477.81 38.228 439.638 0.056 392.533 0 Z M 40.511 453.111 C 40.511 481.388 420.81 443.733 392.533 443.733 L 85.333 443.733 C 57.056 443.733 34.133 420.81 34.133 392.533 L 395.708 36.113 C 395.708 7.836 57.056 34.133 85.333 34.133 L 366.03 30.347 C 394.307 30.347 32.939 367.518 32.939 395.795 L 40.511 453.111 Z" fill="#f977a3"/>
    </g>
  </g>
  <g transform="matrix(1, 0, 0, 1, 30.576967, 9.252105)">
    <g>
      <path d="M324.267,221.867H256V153.6c0-9.426-7.641-17.067-17.067-17.067s-17.067,7.641-17.067,17.067v68.267H153.6 c-9.426,0-17.067,7.641-17.067,17.067S144.174,256,153.6,256h68.267v68.267c0,9.426,7.641,17.067,17.067,17.067 S256,333.692,256,324.267V256h68.267c9.426,0,17.067-7.641,17.067-17.067S333.692,221.867,324.267,221.867z"/>
    </g>
  </g>
  <g transform="matrix(1, 0, 0, 1, 30.576967, 9.252105)"/>
  <g transform="matrix(1, 0, 0, 1, 30.576967, 9.252105)"/>
  <g transform="matrix(1, 0, 0, 1, 30.576967, 9.252105)"/>
  <g transform="matrix(1, 0, 0, 1, 30.576967, 9.252105)"/>
  <g transform="matrix(1, 0, 0, 1, 30.576967, 9.252105)"/>
  <g transform="matrix(1, 0, 0, 1, 30.576967, 9.252105)"/>
  <g transform="matrix(1, 0, 0, 1, 30.576967, 9.252105)"/>
  <g transform="matrix(1, 0, 0, 1, 30.576967, 9.252105)"/>
  <g transform="matrix(1, 0, 0, 1, 30.576967, 9.252105)"/>
  <g transform="matrix(1, 0, 0, 1, 30.576967, 9.252105)"/>
  <g transform="matrix(1, 0, 0, 1, 30.576967, 9.252105)"/>
  <g transform="matrix(1, 0, 0, 1, 30.576967, 9.252105)"/>
  <g transform="matrix(1, 0, 0, 1, 30.576967, 9.252105)"/>
  <g transform="matrix(1, 0, 0, 1, 30.576967, 9.252105)"/>
  <g transform="matrix(1, 0, 0, 1, 30.576967, 9.252105)"/>
</svg>